<svg width="170" height="54" viewBox="0 0 170 54" fill="none" xmlns="http://www.w3.org/2000/svg">
<g clip-path="url(#clip0)">
<path fill-rule="evenodd" clip-rule="evenodd" d="M4.6875 23.156H31.0699V49.6759H4.6875V23.156ZM6.27532 24.7231V48.1065H29.4844V24.7231H6.27532Z" fill="white"/>
<path fill-rule="evenodd" clip-rule="evenodd" d="M28.7809 23.0074C28.4941 23.3126 27.5932 24.4007 27.2775 24.5288C27.1052 24.7859 26.8912 24.9174 26.6842 25.162L21.3252 30.8315C21.0777 31.0716 20.9956 31.2373 20.7481 31.4774L17.8778 34.8105C17.4406 34.7739 16.7514 34.2927 16.3628 34.0984L14.945 33.2925C14.4708 33.009 14.0267 32.7621 13.5387 32.473L6.39524 28.3934C6.08184 28.2791 4.96701 27.7247 4.79238 27.5007C4.5183 27.4435 4.19565 27.2126 3.90422 27.0698C3.34565 26.7966 1.6734 26.0216 1.1981 25.8593C0.222041 25.5244 0.0138776 26.1507 0 26.9143V29.5216C0.00462585 29.557 0.0092517 29.589 0.0161905 29.6176C0.128367 30.1446 2.96864 33.1588 3.55612 33.8846L4.7785 35.3146C5.04218 35.4495 5.0202 35.5226 5.20986 35.7581C5.34633 35.9273 5.46429 36.0233 5.60422 36.2016C5.81701 36.4725 6.25762 36.892 6.38714 37.1732C6.39986 37.1869 6.41837 37.1892 6.42415 37.2143L6.89136 37.7493C7.07639 37.9848 7.22905 38.1596 7.4083 38.3825C8.41095 39.6216 9.33959 40.9132 10.1665 42.2803C10.9505 43.5754 11.9347 45.1265 12.6378 46.4628C12.7951 46.7622 13.2669 47.6961 13.4439 47.911L14.2719 49.5101L15.6157 51.898C16.9537 54.3738 17.3608 54.9831 19.0562 51.9723L20.0797 50.1628C20.2265 49.9159 20.2786 49.7353 20.4451 49.5101C20.5469 49.2221 21.1482 48.0825 21.3437 47.9282C21.4107 47.655 22.699 45.3803 22.9581 44.9379C23.711 43.6497 24.3343 42.4438 25.1808 41.119C25.537 40.5612 25.8805 40.0525 26.2228 39.481C26.5639 38.9106 26.9456 38.3974 27.2729 37.8544C27.6175 37.2841 27.9829 36.8166 28.331 36.2336C28.5149 35.9261 29.2296 34.8071 29.4343 34.6573C29.5002 34.343 30.4219 33.0891 30.7214 32.6593L30.9758 32.3392L34.0254 28.0002C34.3065 27.6161 34.5169 27.3167 34.7968 26.9349L43.4784 16.0199L44.8465 14.5534C45.4293 13.7967 53.2539 6.11878 54.1895 5.20549C54.3988 5.00088 54.4428 4.93801 54.6197 4.7174C54.7782 4.52194 54.9297 4.39621 55.1135 4.21446C55.361 3.96985 57.3663 2.02666 57.785 1.45285C58.1446 0.960196 58.4962 0.706438 58.2545 0.00574816C56.6748 -0.123417 54.1259 1.71118 52.8295 2.56504C50.6276 4.01557 48.6882 5.52783 46.6193 7.09038L44.289 8.89983C43.0401 9.90914 40.9931 11.474 39.8182 12.553L38.5067 13.6926C37.4439 14.5751 36.4725 15.5295 35.4271 16.4371C34.8222 16.964 34.3851 17.5344 33.7398 18.0442C33.2252 18.45 32.5718 19.1827 32.0756 19.6742C30.9412 20.7933 29.9142 21.87 28.7809 23.0074Z" fill="#EC1C24"/>
<path fill-rule="evenodd" clip-rule="evenodd" d="M57.7724 30.979V31.363L57.6522 30.979H55.2328L55.2143 30.9481C54.4811 29.7468 53.497 28.7889 52.2688 28.0813C51.0996 27.4115 49.8102 26.9029 48.4456 26.84C48.3045 26.8343 48.1645 26.8194 48.0235 26.8103C47.8882 26.7977 47.7494 26.8103 47.6141 26.8103C45.034 26.8103 42.9362 27.8882 41.2223 29.7708C39.4471 31.7208 38.5092 33.992 38.5092 36.6188C38.5092 39.3347 39.402 41.7134 41.2813 43.7011C43.0391 45.562 45.1716 46.6319 47.7621 46.6319C49.2817 46.6319 50.6949 46.2078 52.0028 45.4488C53.3501 44.6647 54.4569 43.6268 55.3045 42.3306L55.3242 42.3009L57.8962 42.2632L57.8522 42.3557C56.9028 44.3435 55.4965 45.9506 53.645 47.1668C51.8641 48.3362 49.905 49.0049 47.7621 49.0049C44.4974 49.0049 41.7739 47.7887 39.5535 45.4306C37.2279 42.9593 36.1836 39.9873 36.1836 36.6234C36.1836 33.3051 37.2626 30.3892 39.5535 27.9567C41.7277 25.6478 44.3841 24.4019 47.5852 24.4019C48.7092 24.4019 49.8206 24.5687 50.8973 24.8865C52.0017 25.2111 53.0171 25.7278 53.9445 26.4033C54.1342 26.5416 54.3285 26.6708 54.5112 26.816C54.7055 26.9726 54.8882 27.1417 55.0756 27.3052C55.6052 27.7613 56.1002 28.2494 56.5431 28.7877C56.971 29.309 57.3862 29.8988 57.6175 30.5332C57.6418 30.6006 57.6695 30.6612 57.6996 30.7252C57.7181 30.7652 57.7343 30.8064 57.7481 30.8487H57.7748V30.9275L57.7909 30.9767H57.7724V30.979ZM63.579 35.1808H74.8199V24.7551H77.1467V48.5888H74.8199V37.4521H63.579V48.5888H61.2522V24.7551H63.579V35.1808ZM83.853 27.0274V35.4369H93.3256V37.7081H83.853V46.3164H93.6517V48.5877H81.5285V24.7551H93.6517V27.0274H83.853ZM118.077 30.979V31.363L117.957 30.979H115.538L115.519 30.9481C114.783 29.7468 113.802 28.7889 112.573 28.0813C111.405 27.4115 110.113 26.9029 108.749 26.84C108.608 26.8343 108.468 26.8194 108.327 26.8103C108.191 26.7977 108.053 26.8103 107.918 26.8103C105.337 26.8103 103.24 27.8882 101.525 29.7708C99.752 31.7208 98.8118 33.992 98.8118 36.6188C98.8118 39.3347 99.7035 41.7134 101.583 43.7011C103.342 45.562 105.473 46.6319 108.064 46.6319C109.584 46.6319 110.996 46.2078 112.305 45.4488C113.652 44.6647 114.759 43.6268 115.607 42.3306L115.627 42.3009L118.199 42.2632L118.155 42.3557C117.205 44.3435 115.799 45.9506 113.946 47.1668C112.168 48.3362 110.209 49.0049 108.064 49.0049C104.8 49.0049 102.075 47.7887 99.855 45.4306C97.5282 42.9593 96.4839 39.9873 96.4839 36.6234C96.4839 33.3051 97.5628 30.3892 99.855 27.9567C102.03 25.6478 104.684 24.4019 107.884 24.4019C109.011 24.4019 110.121 24.5687 111.198 24.8865C112.302 25.2111 113.318 25.7278 114.246 26.4033C114.434 26.5416 114.629 26.6708 114.811 26.816C115.006 26.9726 115.188 27.1417 115.377 27.3052C115.904 27.7613 116.402 28.2494 116.845 28.7877C117.271 29.309 117.688 29.8988 117.918 30.5332C117.942 30.6006 117.971 30.6612 118 30.7252C118.02 30.7652 118.033 30.8064 118.048 30.8487H118.075V30.9275L118.091 30.9767H118.077V30.979ZM123.883 38.2568L133.905 24.7551H136.856L128.148 36.3719L136.854 48.5888H133.964L126.671 38.3688L123.883 42.0723V48.5888H121.557V24.7551H123.883V38.2568ZM141.423 27.0274V35.4369H150.895V37.7081H141.423V46.3164H151.223V48.5877H139.097V24.7551H151.223V27.0274H141.423ZM163.588 39.7679L169.763 48.5888H166.881L159.34 37.7138H160.127L160.138 37.7173C160.185 37.7367 160.237 37.7458 160.289 37.7458C160.35 37.7458 160.411 37.7458 160.472 37.7458C160.746 37.7458 161.023 37.7458 161.298 37.7458C161.582 37.7458 161.869 37.7298 162.155 37.7138C162.63 37.6875 163.105 37.6349 163.576 37.5492C164.027 37.4669 164.457 37.3172 164.864 37.1103C165.748 36.6656 166.451 36.0335 166.945 35.1808C167.449 34.3087 167.678 33.3588 167.678 32.3563C167.678 32.3141 167.678 32.2718 167.678 32.2272C167.678 32.2066 167.678 32.186 167.678 32.1655C167.66 31.3733 167.447 30.6178 167.093 29.9091C166.748 29.2255 166.273 28.6391 165.661 28.1716C165.077 27.7281 164.424 27.4104 163.696 27.2801C162.984 27.1532 162.263 27.0732 161.541 27.0629C161.412 27.0594 161.283 27.0629 161.156 27.0629C161.017 27.0629 160.879 27.0652 160.739 27.0629L157.329 27.0263V48.5877H155.003V24.7551H160.291C160.649 24.7551 161.005 24.7871 161.365 24.7871C161.723 24.7871 162.081 24.8191 162.438 24.8511C163.157 24.9162 163.876 24.9917 164.582 25.1414C165.291 25.2923 165.95 25.5735 166.561 25.9587C167.675 26.6548 168.555 27.567 169.142 28.7363C169.747 29.9411 170.004 31.243 170.004 32.5815C170.004 34.495 169.39 36.1776 168.089 37.5972C166.874 38.9175 165.393 39.6879 163.588 39.7679Z" fill="white"/>
</g>
<defs>
<clipPath id="clip0">
<rect width="170" height="54" fill="white"/>
</clipPath>
</defs>
</svg>
