<svg width="29" height="29" viewBox="0 0 29 29" fill="none" xmlns="http://www.w3.org/2000/svg">
<path d="M18.4986 4.70877L18.4986 4.70853C18.2141 3.07861 16.8622 1.7219 15.2413 1.43984M18.4986 4.70877L15.2413 1.43984M18.4986 4.70877C18.6634 5.65147 18.5012 6.5241 18.1193 7.2624C17.3491 8.7509 16.75 10.4482 16.75 12.2965V12.8323C16.75 14.5127 18.1121 15.8748 19.7925 15.8748H23.5625C25.8062 15.8748 27.625 17.6937 27.625 19.9374V21.7499C27.625 21.9914 27.4289 22.1874 27.1875 22.1874H1.8125C1.57106 22.1874 1.375 21.9914 1.375 21.7499V19.9374C1.375 17.6937 3.19382 15.8748 5.4375 15.8748H9.2075C10.8879 15.8748 12.25 14.5127 12.25 12.8323V12.8284C12.25 10.743 11.596 8.81887 10.8029 7.10237L10.8026 7.10178C10.5687 6.59604 10.4375 6.03475 10.4375 5.43723C10.4375 2.95406 12.6616 0.990953 15.2413 1.43984M18.4986 4.70877L15.4771 0.085198L15.2413 1.43984M25.8125 26.75V27.625H3.1875V26.75H25.8125Z" stroke="white" stroke-width="2.75"/>
</svg>
