<svg width="30" height="24" viewBox="0 0 30 24" fill="none" xmlns="http://www.w3.org/2000/svg">
<path fill-rule="evenodd" clip-rule="evenodd" d="M27.4571 16.8647C30.3882 15.7701 30.3882 14.1891 27.4571 13.0945C24.3632 11.9392 19.261 11.9392 16.1128 13.0945C15.19 13.4594 14.5387 13.8242 14.1587 14.3107H14.213L13.8873 14.9796C13.8873 15.6485 14.7558 16.3174 16.1128 16.8647C19.261 18.02 24.3632 18.02 27.4571 16.8647ZM2.54295 5.12868C5.63687 6.28404 10.7391 6.28404 13.8873 5.12868C16.8184 4.03414 16.8184 2.45313 13.8873 1.35858C10.7391 0.203227 5.63687 0.203227 2.54295 1.35858C1.18597 1.90585 0.317505 2.57474 0.317505 3.24363C0.317505 3.97333 1.18597 4.58141 2.54295 5.12868ZM2.54295 7.98667C5.63687 9.20283 10.7391 9.20283 13.8873 7.98667C15.2443 7.5002 16.0585 6.83131 16.0585 6.16242V4.45979C14.5387 6.10161 10.7391 6.58808 8.188 6.58808C5.69115 6.58808 1.83732 6.10161 0.317505 4.45979V6.16242C0.317505 6.83131 1.18597 7.5002 2.54295 7.98667ZM2.54295 10.9055C5.63687 12.0608 10.7391 12.0608 13.8873 10.9055C15.2443 10.419 16.0585 9.7501 16.0585 9.0204V7.37858C14.5387 8.9596 10.7391 9.50687 8.188 9.50687C5.69115 9.50687 1.83732 8.9596 0.317505 7.37858V9.0204C0.317505 9.7501 1.18597 10.419 2.54295 10.9055ZM2.54295 13.8242C5.52831 14.9188 10.6306 14.9796 13.8873 13.8242C14.3758 13.277 15.1357 12.8513 16.0585 12.4865V10.2366C14.5387 11.8784 10.7391 12.3649 8.188 12.3649C5.69115 12.3649 1.83732 11.8784 0.317505 10.2366V11.9392C0.317505 12.6081 1.18597 13.277 2.54295 13.8242ZM2.54295 16.6822C5.41976 17.7768 10.1421 17.8376 13.3445 16.8647L13.3988 14.5539C10.1421 15.5877 5.36548 15.4661 2.32584 14.3715C1.45737 14.0675 0.751739 13.6418 0.317505 13.1554V14.7972C0.317505 15.5269 1.18597 16.1958 2.54295 16.6822ZM13.3445 19.7834V17.4727C10.0878 18.5065 5.36548 18.3849 2.32584 17.2903C1.45737 16.9255 0.751739 16.4998 0.317505 16.0133V17.716C0.317505 18.3849 1.18597 19.0537 2.54295 19.601C5.41976 20.6956 10.1421 20.7564 13.3445 19.7834ZM29.6826 19.1146C28.1628 20.6956 24.3089 21.2428 21.8121 21.2428C19.261 21.2428 15.4071 20.6956 13.8873 19.1146V20.7564C13.8873 21.4861 14.7558 22.0942 16.1128 22.6414C19.261 23.7968 24.3632 23.7968 27.4571 22.6414C28.8141 22.0942 29.6826 21.4861 29.6826 20.7564V19.1146ZM29.6826 16.1958C28.1628 17.8376 24.3089 18.324 21.8121 18.324C19.261 18.324 15.4071 17.8376 13.8873 16.1958V17.8376C13.8873 18.5673 14.7558 19.2362 16.1128 19.7226C19.261 20.878 24.3632 20.878 27.4571 19.7226C28.8141 19.2362 29.6826 18.5673 29.6826 17.8376V16.1958Z" fill="white"/>
</svg>
