<svg width="24" height="24" viewBox="0 0 24 24" fill="none" xmlns="http://www.w3.org/2000/svg">
<path d="M15.4451 3.87317L15.4451 3.87299C15.1997 2.46725 14.0364 1.29919 12.6372 1.0557C10.4165 0.669296 8.5 2.36048 8.5 4.49978C8.5 5.01479 8.61313 5.49903 8.81493 5.93525L8.81513 5.93568C9.46766 7.34796 10 8.91931 10 10.6166V10.6198C10 11.9343 8.93449 12.9999 7.62 12.9999H4.5C2.56698 12.9999 1 14.5668 1 16.4999V17.9999C1 18.2759 1.22401 18.4999 1.5 18.4999H22.5C22.776 18.4999 23 18.2759 23 17.9999V16.4999C23 14.5668 21.433 12.9999 19.5 12.9999H16.38C15.0655 12.9999 14 11.9343 14 10.6198V10.1764C14 8.67672 14.4861 7.29441 15.1177 6.07377L15.4451 3.87317ZM15.4451 3.87317C15.5868 4.68394 15.4473 5.43665 15.1178 6.07365L15.4451 3.87317ZM21.5 22V23H2.5V22H21.5Z" stroke="white" stroke-width="2"/>
</svg>
