<svg width="24" height="32" viewBox="0 0 24 32" fill="none" xmlns="http://www.w3.org/2000/svg">
<path fill-rule="evenodd" clip-rule="evenodd" d="M15.5152 4H20.3636C21.9697 4 23.2727 5.34375 23.2727 7V29C23.2727 30.6562 21.9697 32 20.3636 32H2.90909C1.30303 32 0 30.6562 0 29V7C0 5.34375 1.30303 4 2.90909 4H7.75758C7.75758 1.79375 9.49697 0 11.6364 0C13.7758 0 15.5152 1.79375 15.5152 4ZM13.0909 4C13.0909 3.16875 12.4424 2.5 11.6364 2.5C10.8303 2.5 10.1818 3.16875 10.1818 4C10.1818 4.83125 10.8303 5.5 11.6364 5.5C12.4424 5.5 13.0909 4.83125 13.0909 4ZM14.3876 12.6101C14.7781 12.2196 15.4113 12.2196 15.8018 12.6101L16.3713 13.1796C16.7618 13.5702 16.7618 14.2033 16.3713 14.5938L13.7722 17.193L16.3713 19.7921C16.7619 20.1826 16.7619 20.8158 16.3713 21.2063L15.8018 21.7758C15.4113 22.1663 14.7781 22.1663 14.3876 21.7758L11.7885 19.1767L9.18934 21.7758C8.79882 22.1663 8.16566 22.1663 7.77513 21.7758L7.20561 21.2063C6.81508 20.8158 6.81508 20.1826 7.20561 19.7921L9.80474 17.193L7.20563 14.5938C6.8151 14.2033 6.81511 13.5702 7.20563 13.1796L7.77515 12.6101C8.16568 12.2196 8.79884 12.2196 9.18937 12.6101L11.7885 15.2092L14.3876 12.6101Z" fill="white"/>
</svg>
