<svg width="24" height="33" viewBox="0 0 24 33" fill="none" xmlns="http://www.w3.org/2000/svg">
<path fill-rule="evenodd" clip-rule="evenodd" d="M15.5152 4.63672H20.3636C21.9697 4.63672 23.2727 5.98047 23.2727 7.63672V29.6367C23.2727 31.293 21.9697 32.6367 20.3636 32.6367H2.90909C1.30303 32.6367 0 31.293 0 29.6367V7.63672C0 5.98047 1.30303 4.63672 2.90909 4.63672H7.75758C7.75758 2.43047 9.49697 0.636719 11.6364 0.636719C13.7758 0.636719 15.5152 2.43047 15.5152 4.63672ZM13.0909 4.63672C13.0909 3.80547 12.4424 3.13672 11.6364 3.13672C10.8303 3.13672 10.1818 3.80547 10.1818 4.63672C10.1818 5.46797 10.8303 6.13672 11.6364 6.13672C12.4424 6.13672 13.0909 5.46797 13.0909 4.63672ZM14.3876 13.2466C14.7781 12.8561 15.4113 12.8561 15.8018 13.2466L16.3713 13.8161C16.7618 14.2066 16.7618 14.8398 16.3713 15.2303L13.7722 17.8294L16.3713 20.4286C16.7619 20.8191 16.7619 21.4523 16.3713 21.8428L15.8018 22.4123C15.4113 22.8028 14.7781 22.8028 14.3876 22.4123L11.7885 19.8132L9.18933 22.4123C8.79881 22.8028 8.16565 22.8028 7.77512 22.4123L7.2056 21.8428C6.81507 21.4523 6.81507 20.8191 7.2056 20.4286L9.80473 17.8294L7.20562 15.2303C6.8151 14.8398 6.8151 14.2066 7.20562 13.8161L7.77514 13.2466C8.16567 12.8561 8.79883 12.8561 9.18936 13.2466L11.7885 15.8457L14.3876 13.2466Z" fill="#BDD82F"/>
</svg>
